<?xml version="1.0" encoding="UTF-8" standalone="no"?>
<!-- Created with Inkscape (http://www.inkscape.org/) -->

<svg
   xmlns:dc="http://purl.org/dc/elements/1.1/"
   xmlns:cc="http://creativecommons.org/ns#"
   xmlns:rdf="http://www.w3.org/1999/02/22-rdf-syntax-ns#"
   xmlns:svg="http://www.w3.org/2000/svg"
   xmlns="http://www.w3.org/2000/svg"
   xmlns:sodipodi="http://sodipodi.sourceforge.net/DTD/sodipodi-0.dtd"
   xmlns:inkscape="http://www.inkscape.org/namespaces/inkscape"
   width="53"
   height="60"
   id="svg6523"
   version="1.1"
   inkscape:version="0.48.3.1 r9886"
   sodipodi:docname="tab_pause_indicator.svg"
   inkscape:export-filename="/home/sascha/safri/checkout/src/Plugins/DarkBlueSkin/Ressources/tab_pause_indicator.png"
   inkscape:export-xdpi="28.5"
   inkscape:export-ydpi="28.5">
  <defs
     id="defs6525" />
  <sodipodi:namedview
     id="base"
     pagecolor="#ffffff"
     bordercolor="#666666"
     borderopacity="1.0"
     inkscape:pageopacity="0.0"
     inkscape:pageshadow="2"
     inkscape:zoom="3.959798"
     inkscape:cx="33.248448"
     inkscape:cy="19.378439"
     inkscape:document-units="px"
     inkscape:current-layer="layer1"
     showgrid="false"
     fit-margin-top="0"
     fit-margin-left="0"
     fit-margin-right="0"
     fit-margin-bottom="0"
     inkscape:window-width="1148"
     inkscape:window-height="839"
     inkscape:window-x="195"
     inkscape:window-y="50"
     inkscape:window-maximized="0" />
  <metadata
     id="metadata6528">
    <rdf:RDF>
      <cc:Work
         rdf:about="">
        <dc:format>image/svg+xml</dc:format>
        <dc:type
           rdf:resource="http://purl.org/dc/dcmitype/StillImage" />
        <dc:title></dc:title>
      </cc:Work>
    </rdf:RDF>
  </metadata>
  <g
     inkscape:label="Layer 1"
     inkscape:groupmode="layer"
     id="layer1"
     transform="translate(-423.6326,-392.36041)">
    <path
       inkscape:connector-curvature="0"
       id="path948"
       style="fill:#3e3e3e;fill-opacity:1;fill-rule:nonzero;stroke:none"
       d="m 457.11334,395.42954 c -3.82572,0 -6.92508,1.17649 -6.92508,5.00145 l 0,43.85885 c 0,3.82495 3.09936,5.00145 6.92508,5.00145 3.82495,0 6.92508,-1.1765 6.92508,-5.00145 l 0,-43.85885 c 0,-3.82496 -3.10013,-5.00145 -6.92508,-5.00145" />
    <g
       id="g950"
       transform="matrix(0.76945352,0,0,-0.76945352,430.18247,395.42954)"
       style="fill:#3e3e3e;fill-opacity:1">
      <path
         d="m 0,0 c -4.972,0 -9,-1.529 -9,-6.5 l 0,-57 c 0,-4.971 4.028,-6.5 9,-6.5 4.971,0 9,1.529 9,6.5 l 0,57 C 9,-1.529 4.971,0 0,0"
         style="fill:#3e3e3e;fill-opacity:1;fill-rule:nonzero;stroke:none"
         id="path952"
         inkscape:connector-curvature="0" />
    </g>
  </g>
</svg>
