<?xml version="1.0" encoding="UTF-8" standalone="no"?>
<!-- Created with Inkscape (http://www.inkscape.org/) -->

<svg
   xmlns:dc="http://purl.org/dc/elements/1.1/"
   xmlns:cc="http://creativecommons.org/ns#"
   xmlns:rdf="http://www.w3.org/1999/02/22-rdf-syntax-ns#"
   xmlns:svg="http://www.w3.org/2000/svg"
   xmlns="http://www.w3.org/2000/svg"
   xmlns:sodipodi="http://sodipodi.sourceforge.net/DTD/sodipodi-0.dtd"
   xmlns:inkscape="http://www.inkscape.org/namespaces/inkscape"
   width="57.139595"
   height="57.139595"
   id="svg6523"
   version="1.1"
   inkscape:version="0.48.3.1 r9886"
   sodipodi:docname="New document 7">
  <defs
     id="defs6525" />
  <sodipodi:namedview
     id="base"
     pagecolor="#ffffff"
     bordercolor="#666666"
     borderopacity="1.0"
     inkscape:pageopacity="0.0"
     inkscape:pageshadow="2"
     inkscape:zoom="2.8"
     inkscape:cx="47.209491"
     inkscape:cy="15.614627"
     inkscape:document-units="px"
     inkscape:current-layer="layer1"
     showgrid="false"
     fit-margin-top="0"
     fit-margin-left="0"
     fit-margin-right="0"
     fit-margin-bottom="0"
     inkscape:window-width="1148"
     inkscape:window-height="839"
     inkscape:window-x="481"
     inkscape:window-y="161"
     inkscape:window-maximized="0" />
  <metadata
     id="metadata6528">
    <rdf:RDF>
      <cc:Work
         rdf:about="">
        <dc:format>image/svg+xml</dc:format>
        <dc:type
           rdf:resource="http://purl.org/dc/dcmitype/StillImage" />
        <dc:title></dc:title>
      </cc:Work>
    </rdf:RDF>
  </metadata>
  <g
     inkscape:label="Layer 1"
     inkscape:groupmode="layer"
     id="layer1"
     transform="translate(-417.14449,-395.22095)">
    <path
       inkscape:connector-curvature="0"
       id="path114"
       style="fill:#7fb4db;fill-opacity:1;fill-rule:nonzero;stroke:none"
       d="m 464.27584,396.39036 -18.56155,18.56156 -18.56155,-18.56156 c -2.44129,-2.44128 -4.62978,-0.67352 -7.07107,1.76777 -2.44129,2.44129 -4.20905,4.62978 -1.76777,7.07107 l 18.56156,18.56155 -18.56156,18.56155 c -2.44128,2.44129 -0.67352,4.62978 1.76777,7.07107 2.44129,2.44129 4.62978,4.20905 7.07107,1.76777 l 18.56155,-18.56156 18.56155,18.56156 c 2.44129,2.44128 4.62978,0.67352 7.07107,-1.76777 2.44129,-2.44129 4.20905,-4.62978 1.76777,-7.07107 l -18.56156,-18.56155 18.56156,-18.56155 c 2.44128,-2.44129 0.67352,-4.62978 -1.76777,-7.07107 -2.44129,-2.44129 -4.62978,-4.20905 -7.07107,-1.76777"
       inkscape:export-filename="/home/sascha/safri/checkout/src/Plugins/DarkBlueSkin/Ressources/close_button_hover.png"
       inkscape:export-xdpi="9.4505396"
       inkscape:export-ydpi="9.4505396" />
  </g>
</svg>
