<?xml version="1.0" encoding="UTF-8" standalone="no"?>
<!-- Created with Inkscape (http://www.inkscape.org/) -->

<svg
   xmlns:dc="http://purl.org/dc/elements/1.1/"
   xmlns:cc="http://creativecommons.org/ns#"
   xmlns:rdf="http://www.w3.org/1999/02/22-rdf-syntax-ns#"
   xmlns:svg="http://www.w3.org/2000/svg"
   xmlns="http://www.w3.org/2000/svg"
   xmlns:sodipodi="http://sodipodi.sourceforge.net/DTD/sodipodi-0.dtd"
   xmlns:inkscape="http://www.inkscape.org/namespaces/inkscape"
   width="512"
   height="512"
   id="svg7271"
   version="1.1"
   inkscape:version="0.48.3.1 r9886"
   inkscape:export-filename="/home/sascha/safri/Icons/Online.png"
   inkscape:export-xdpi="11.25"
   inkscape:export-ydpi="11.25"
   sodipodi:docname="Online.svg">
  <defs
     id="defs7273" />
  <sodipodi:namedview
     id="base"
     pagecolor="#000000"
     bordercolor="#666666"
     borderopacity="1.0"
     inkscape:pageopacity="0"
     inkscape:pageshadow="2"
     inkscape:zoom="0.90509668"
     inkscape:cx="-43.816938"
     inkscape:cy="68.966827"
     inkscape:document-units="px"
     inkscape:current-layer="layer1"
     showgrid="false"
     inkscape:window-width="1920"
     inkscape:window-height="1058"
     inkscape:window-x="0"
     inkscape:window-y="0"
     inkscape:window-maximized="1"
     inkscape:snap-global="true"
     inkscape:snap-bbox="true"
     inkscape:snap-page="true" />
  <metadata
     id="metadata7276">
    <rdf:RDF>
      <cc:Work
         rdf:about="">
        <dc:format>image/svg+xml</dc:format>
        <dc:type
           rdf:resource="http://purl.org/dc/dcmitype/StillImage" />
        <dc:title></dc:title>
      </cc:Work>
    </rdf:RDF>
  </metadata>
  <g
     inkscape:label="Layer 1"
     inkscape:groupmode="layer"
     id="layer1"
     transform="translate(0,-540.36218)">
    <path
       inkscape:connector-curvature="0"
       id="path418"
       style="fill:#ffffff;fill-opacity:1;fill-rule:nonzero;stroke:none"
       d="m 353.06745,909.58251 c -65.22362,30.55271 -119.75659,77.60611 -159.25251,135.13319 19.90656,4.9696 40.72582,7.6465 62.17949,7.6465 38.61663,0 75.20196,-8.6038 108.03082,-23.9135 5.27577,-25.8056 8.06948,-52.49613 8.06948,-79.83775 0,-9.87815 -0.44522,-19.65613 -1.18538,-29.34507 -6.57802,-2.10919 -12.61065,-5.4149 -17.8419,-9.68337 m 74.77902,-302.96155 c -41.02634,3.95682 -80.21061,14.25236 -116.6902,29.72906 0.19456,1.79755 0.28939,3.61179 0.28939,5.45386 0,8.59817 -2.05355,16.70103 -5.59299,23.93574 36.43508,42.79049 64.74503,92.64872 82.61475,147.23178 22.14932,0.38956 41.08198,13.95741 49.22381,33.22955 24.6425,-2.49876 48.63946,-7.21801 71.75712,-14.01307 1.64172,-11.70909 2.54884,-23.66304 2.54884,-35.83404 0,-75.24091 -32.46712,-142.89652 -84.15072,-189.73288 M 325.65906,880.4823 c -63.18122,-10.46806 -121.78232,-34.57631 -172.77584,-69.1248 -8.27539,5.06986 -17.98659,8.06391 -28.41013,8.06391 -3.83439,0 -7.56304,-0.40603 -11.16927,-1.15755 -24.414335,46.2854 -40.013469,97.90779 -44.498984,152.64111 24.375385,26.13397 54.115584,47.18693 87.517654,61.32243 41.48267,-63.78779 99.4716,-116.55105 169.33657,-151.7451 m 83.41057,36.91369 c 0.75129,10.31223 1.15199,20.71351 1.15199,31.21496 0,18.48189 -1.17982,36.68552 -3.41145,54.56635 43.40265,-31.71025 76.46525,-76.7268 93.13289,-129.07267 -19.74517,4.76934 -40.00234,8.18078 -60.67689,10.17311 -4.85838,14.90349 -15.94418,26.95762 -30.19654,33.11825 m -70.6441,-73.52128 c 3.39474,-7.05662 8.20304,-13.29516 14.15219,-18.25928 -16.07217,-49.47981 -41.54388,-94.73009 -74.34492,-133.65279 -6.52793,2.77144 -13.71254,4.30743 -21.2589,4.30743 -11.81483,0 -22.71697,-3.801 -31.63791,-10.1898 -19.73962,15.00366 -38.01001,31.82713 -54.62757,50.181 5.18672,8.33104 8.23086,18.14798 8.23086,28.68282 0,5.69316 -0.87929,11.16927 -2.49319,16.32261 47.77686,31.92174 102.75505,53.80393 161.97944,62.60801 M 256.9739,587.3377 c 14.38593,0 27.43066,5.61524 37.16412,14.7254 28.42125,-12.22665 58.35066,-21.59841 89.47658,-27.59204 -37.5815,-21.65403 -81.13441,-34.10885 -127.62017,-34.10885 -31.69356,0 -62.02367,5.80446 -90.03866,16.3393 22.23837,10.97449 43.42491,23.79661 63.3593,38.24376 8.114,-4.80273 17.55251,-7.60757 27.65883,-7.60757 M 70.001345,764.94409 c 0,-7.64652 1.597199,-14.92018 4.446559,-21.52602 C 56.962183,724.22942 41.129313,703.5159 27.255378,681.45001 9.8586995,716.00968 0.00280758,755.02137 0.00280758,796.35384 c 0,47.86591 13.16716042,92.64315 36.03438742,130.96482 8.16965,-46.06285 23.674175,-89.57675 45.094462,-129.4901 -6.956446,-9.13799 -11.130312,-20.5076 -11.130312,-32.88451 m 54.471745,-54.46057 c 5.58742,0 10.98006,0.84034 16.06661,2.40967 19.18866,-21.50377 40.45869,-41.0653 63.504,-58.43415 -0.96278,-4.06813 -1.53599,-8.28652 -1.53599,-12.65512 0,-6.03263 1.02399,-11.8204 2.83823,-17.24642 -25.80562,-18.52084 -53.88184,-34.05875 -83.7389,-46.07949 -27.998302,17.30764 -52.412643,39.86321 -71.86843,66.29214 14.447146,25.57746 31.621219,49.43528 51.14378,71.14496 7.1401,-3.44483 15.1261,-5.43159 23.5907,-5.43159" />
  </g>
</svg>
